<svg xmlns="http://www.w3.org/2000/svg" width="1280" height="720" viewBox="0 0 1280 720">
  <rect width="1280" height="720" fill="#0f1117"/>
  <rect width="1280" height="48" fill="#171b24"/>
  <rect y="47" width="1280" height="1" fill="#2a3142"/>
  <text x="20" y="30" fill="#e8ecf4" font-family="Segoe UI, system-ui, sans-serif" font-size="15" font-weight="600">JLC Search — Runway</text>
  <rect y="48" width="220" height="624" fill="#171b24"/>
  <rect x="219" y="48" width="1" height="624" fill="#2a3142"/>
  <text x="24" y="85" fill="#8b95a8" font-family="Segoe UI, system-ui, sans-serif" font-size="13">Start</text>
  <text x="24" y="117" fill="#8b95a8" font-family="Segoe UI, system-ui, sans-serif" font-size="13">Configuration</text>
  <rect x="12" y="129" width="196" height="32" rx="6" fill="#1a7f72"/>
  <text x="24" y="150" fill="#e8ecf4" font-family="Segoe UI, system-ui, sans-serif" font-size="13">Run &amp; Results</text>
  <rect x="240" y="68" width="1000" height="580" rx="10" fill="#171b24" stroke="#2a3142"/>
  <text x="260" y="104" fill="#e8ecf4" font-family="Segoe UI, system-ui, sans-serif" font-size="18" font-weight="600">Progress</text>
  <circle cx="272" cy="136" r="5" fill="#22c55e"/>
  <text x="288" y="141" fill="#e8ecf4" font-family="Segoe UI, system-ui, sans-serif" font-size="13">Check Bun</text>
  <circle cx="272" cy="166" r="5" fill="#22c55e"/>
  <text x="288" y="171" fill="#e8ecf4" font-family="Segoe UI, system-ui, sans-serif" font-size="13">Build database</text>
  <circle cx="272" cy="196" r="5" fill="#22c55e"/>
  <text x="288" y="201" fill="#e8ecf4" font-family="Segoe UI, system-ui, sans-serif" font-size="13">Start server</text>
  <rect x="260" y="220" width="960" height="400" rx="8" fill="#ffffff"/>
  <text x="280" y="260" fill="#111827" font-family="Segoe UI, system-ui, sans-serif" font-size="28" font-weight="700">JLCPCB Parts Search</text>
  <text x="280" y="300" fill="#4b5563" font-family="Segoe UI, system-ui, sans-serif" font-size="14">Local jlcsearch UI embedded at http://127.0.0.1:3065/</text>
  <rect x="280" y="320" width="360" height="40" rx="6" fill="#f3f4f6" stroke="#d1d5db"/>
  <text x="296" y="346" fill="#9ca3af" font-family="Segoe UI, system-ui, sans-serif" font-size="14">Search parts…</text>
  <rect y="672" width="1280" height="48" fill="#171b24"/>
  <rect x="240" y="684" width="72" height="32" rx="6" fill="#1a7f72"/>
  <text x="258" y="705" fill="#e8ecf4" font-family="Segoe UI, system-ui, sans-serif" font-size="13">Run</text>
</svg>